<svg width="417" height="206" viewBox="0 0 417 206" fill="none" xmlns="http://www.w3.org/2000/svg">
<path d="M100.745 91.3H201.695V103.9C201.695 118.1 199.295 131.35 194.495 143.65C189.795 155.95 183.045 166.75 174.245 176.05C165.445 185.35 154.945 192.6 142.745 197.8C130.545 203 117.045 205.6 102.245 205.6C86.9445 205.6 73.0445 203 60.5445 197.8C48.1445 192.5 37.4445 185.15 28.4445 175.75C19.4445 166.35 12.5445 155.45 7.74453 143.05C2.94453 130.55 0.544531 117.15 0.544531 102.85C0.544531 88.65 2.94453 75.35 7.74453 62.95C12.5445 50.45 19.4445 39.55 28.4445 30.25C37.4445 20.85 48.1445 13.55 60.5445 8.35C73.0445 3.04999 86.9445 0.399985 102.245 0.399985C114.745 0.399985 125.745 1.74999 135.245 4.45C144.845 7.14999 153.095 10.75 159.995 15.25C166.895 19.75 172.745 24.7 177.545 30.1C182.345 35.4 186.345 40.6 189.545 45.7L146.945 65.8C142.845 59.5 137.245 54 130.145 49.3C123.145 44.6 113.845 42.25 102.245 42.25C94.1445 42.25 86.6945 43.85 79.8945 47.05C73.1945 50.25 67.3945 54.65 62.4945 60.25C57.5945 65.75 53.7945 72.2 51.0945 79.6C48.4945 86.9 47.1945 94.65 47.1945 102.85C47.1945 111.15 48.4945 118.95 51.0945 126.25C53.7945 133.55 57.5945 140 62.4945 145.6C67.3945 151.2 73.1945 155.6 79.8945 158.8C86.6945 161.9 94.1445 163.45 102.245 163.45C109.345 163.45 115.795 162.55 121.595 160.75C127.395 158.95 132.395 156.35 136.595 152.95C140.895 149.55 144.245 145.55 146.645 140.95C149.145 136.25 150.645 131.1 151.145 125.5H100.745V91.3ZM315.35 91.3H416.3V103.9C416.3 118.1 413.9 131.35 409.1 143.65C404.4 155.95 397.65 166.75 388.85 176.05C380.05 185.35 369.55 192.6 357.35 197.8C345.15 203 331.65 205.6 316.85 205.6C301.55 205.6 287.65 203 275.15 197.8C262.75 192.5 252.05 185.15 243.05 175.75C234.05 166.35 227.15 155.45 222.35 143.05C217.55 130.55 215.15 117.15 215.15 102.85C215.15 88.65 217.55 75.35 222.35 62.95C227.15 50.45 234.05 39.55 243.05 30.25C252.05 20.85 262.75 13.55 275.15 8.35C287.65 3.04999 301.55 0.399985 316.85 0.399985C329.35 0.399985 340.35 1.74999 349.85 4.45C359.45 7.14999 367.7 10.75 374.6 15.25C381.5 19.75 387.35 24.7 392.15 30.1C396.95 35.4 400.95 40.6 404.15 45.7L361.55 65.8C357.45 59.5 351.85 54 344.75 49.3C337.75 44.6 328.45 42.25 316.85 42.25C308.75 42.25 301.3 43.85 294.5 47.05C287.8 50.25 282 54.65 277.1 60.25C272.2 65.75 268.4 72.2 265.7 79.6C263.1 86.9 261.8 94.65 261.8 102.85C261.8 111.15 263.1 118.95 265.7 126.25C268.4 133.55 272.2 140 277.1 145.6C282 151.2 287.8 155.6 294.5 158.8C301.3 161.9 308.75 163.45 316.85 163.45C323.95 163.45 330.4 162.55 336.2 160.75C342 158.95 347 156.35 351.2 152.95C355.5 149.55 358.85 145.55 361.25 140.95C363.75 136.25 365.25 131.1 365.75 125.5H315.35V91.3Z" fill="#2675EA"/>
</svg>
